/* XPM */
static char *dummy[]={
"64 64 14 1",
"l c #202020",
"k c #2c2c2c",
"j c #383838",
". c #484848",
"# c #545454",
"i c #646464",
"h c #707070",
"f c #7c7c7c",
"g c #8c8c8c",
"a c #989898",
"b c #a8a8a8",
"c c #b4b4b4",
"d c #c0c0c0",
"e c #d0d0d0",
".#.abcdeeeeeeeeeeeeeeeeeeeeedcba.#.abcdeeeeeeeeeeeeeeeeeeeeedcba",
".#.fddddddddddddccccdcdcdcdcdcdg.#.fddddddddddddccccdcdcdcdcdcdg",
".#.fddcdddccdccccccccdcdcdcccdcg.#.fddcdddccdccccccccdcdcdcccdcg",
".#.fccdccddcccbcccccdcdcdccccbcg.#.fccdccddcccbcccccdcdcdccccbcg",
".#.fcdccccdccbcbdccdcccdcdcdbcbg.#.fcdccccdccbcbdccdcccdcdcdbcbg",
".#.fcdccccdccbcbdccdcccdcdcdbcbg.#.fcdccccdccbcbdccdcccdcdcdbcbg",
".#.fccdcccccbcbdcdcbccccbcdbcbbg.#.fccdcccccbcbdcdcbccccbcdbcbbg",
".#.fcccdcccbcbcbdbdbbcbcbbbbbbcg.#.fcccdcccbcbcbdbdbbcbcbbbbbbcg",
".#.fccbcbbbbbcbcbbbbbbcbdbbccbbg.#.fccbcbbbbbcbcbbbbbbcbdbbccbbg",
".#.fbacabbbbabcbbabcbcabbbabbabg.#.fbacabbbbabcbbabcbcabbbabbabg",
".#.fbgabagbababaabaababbbabgabag.#.fbgabagbababaabaababbbabgabag",
".#.fgggagagbgbagbagagagagbgagbag.#.fgggagagbgbagbagagagagbgagbag",
".#.fagagaaagaggbaaagagagagagaggg.#.fagagaaagaggbaaagagagagagaggg",
".#.hhhi#iiiiiiiiiiiiiiiiiiiiiiii.#.iiiiiiiiiiiiiiiiiiiiiiiiiiiii",
"..jkkkkkkkkkkkkkkkkkkkkkkkkkkkkkj.jkkkkkkkkkkkkkkkkkkkkkkkkkkkkj",
"................................................................",
"################################################################",
"eeeeeeeeeeedcba.#.abcdeeeeeeeeeeeeeeeeeeeeedcba.#.abcdeeeeeeeeee",
"cccdcdcdcdcdcdg.#.fddddddddddddccccdcdcdcdcdcdg.#.fddddddddddccc",
"ccccdcdcdcccdcg.#.fddcdddccdccccccccdcdcdcccdcg.#.fddcdddccccccc",
"cccdcdcdccccbcg.#.fccdccddcccbcccccdcdcdccccbcg.#.fccdccddcbcccc",
"dcbccccbcdbcbbg.#.fccdcccccbcbdcdcbccccbcdbcbbg.#.fccdcccccbdcdd",
"bdbbcbcbbbbbbcg.#.fcccdcccbcbcbdbdbbcbcbbbbbbcg.#.fcccdcccbcbdbb",
"ccdcccdcdcdbcbg.#.fcdccccdccbcbdccdcccdcdcdbcbg.#.fcdccccdccbdcc",
"dcbccccbcdbcbbg.#.fccdcccccbcbdcdcbccccbcdbcbbg.#.fccdcccccbdcdd",
"bdbbcbcbbbbbbcg.#.fcccdcccbcbcbdbdbbcbcbbbbbbcg.#.fcccdcccbcbdbb",
"bbbbbcbdbbccbbg.#.fccbcbbbbbcbcbbbbbbcbdbbccbbg.#.fccbcbbbbbcbbb",
"abcbcabbbabbabg.#.fbacabbbbabcbbabcbcabbbabbabg.#.fbacabbbbcbbaa",
"baababbbabgabag.#.fbgabagbababaabaababbbabgabag.#.fbgabagbabaabb",
"agagagagbgagbag.#.fgggagagbgbagbagagagagbgagbag.#.fgggagagbagbaa",
"aagagagagagaggg.#.fagagaaagaggbaaagagagagagaggg.#.fagagaaaggbaaa",
"jjjjjj..iiiiiii.#.iiiiiiiiiiiiiiiiiiiiiiiiiiiii.#.iiiiiiiiiiiiii",
"kkkkkkkkkkkkkkkkkkkkkkkkkkkkkkkkkkkkkkkkkkkkkkkkkkkkkkkkkkkkkkkk",
"................................................................",
"################################.#.#############################",
".#.abcdeeeeeeeeeeeeeeeeeeeeedcba.#.abcdeeeeeeeeeeeeeeeeeeeeedcba",
".#.fddddddddddddccccdcdcdcdcdcdg.#.fddddddddddddccccdcdcdcdcdcdg",
".#.fddcdddccdccccccccdcdcdcccdcg.#.fddcdddccdccccccccdcdcdcccdcg",
".#.fccdccddcccbcccccdcdcdccccbcg.#.fccdccddcccbcccccdcdcdccccbcg",
".#.fcdccccdccbcbdccdcccdcdcdbcbg.#.fcdccccdccbcbdccdcccdcdcdbcbg",
".#.fccdcccccbcbdcdcbccccbcdbcbbg.#.fccdcccccbcbdcdcbccccbcdbcbbg",
".#.fcccdcccbcbcbdbdbbcbcbbbbbbcg.#.fcccdcccbcbcbdbdbbcbcbbbbbbcg",
".#.fccbcbbbbbcbcbbbbbbcbdbbccbbg.#.fccbcbbbbbcbcbbbbbbcbdbbccbbg",
".#.fbacabbbbabcbbabcbcabbbabbabg.#.fbacabbbbabcbbabcbcabbbabbabg",
".#.fbgabagbababaabaababbbabgabag.#.fbgabagbababaabaababbbabgabag",
".#.fgggagagbgbagbagagagagbgagbag.#.fgggagagbgbagbagagagagbgagbag",
".#.fagagaaagaggbaaagagagagagaggg.#.fagagaaagaggbaaagagagagagaggg",
".#.hhhi#iiiiiiiiiiiiiiiiiiiiiiii.#.iiiiiiiiiiiiiiiiiiiiiiiiiiiii",
".#.jkkkkkkkkkkkkkkkkkkkkkkkkkkkjj.jjkkkkkkkkkkkkkkkkkkkkkkkkkkkj",
"................................................................",
"################################################################",
"eeeeeeeeeeedcba.#lllllllllllllllllllllllllllllll#.abcdeeeeeeeeee",
"cccdcdcdcdcdcdg.#lllllllllllllllllllllllllllllll#.fddddddddddccc",
"ccccdcdcdcccdcg.#lllllllllllllllllllllllllllllll#.fddcdddccccccc",
"cccdcdcdccccbcg.#lllllllllllllllllllllllllllllll#.fccdccddcbcccc",
"ccdcccdcdcdbcbg.#lllllllllllllllllllllllllllllll#.fcdccccdccbdcc",
"dcbccccbcdbcbbg.#lllllllllllllllllllllllllllllll#.fccdcccccbdcdd",
"bdbbcbcbbbbbbcg.#lllllllllllllllllllllllllllllll#.fcccdcccbcbdbb",
"bbbbbcbdbbccbbg.#lllllllllllllllllllllllllllllll#.fccbcbbbbbcbbb",
"abcbcabbbabbabg.#kkkkkkkkkkkkkkkkkkkkkkkkkkkkkkk#.fbacabbbbcbbaa",
"baababbbabgabag.#jjjjjjjjjjjjjjjjjjjjjjjjjjjjjjj#.fbgabagbabaabb",
"agagagagbgagbag.#...............................#.fgggagagbagbaa",
"aagagagagagaggg.#################################.fagagaaaggbaaa",
"jjjjjj..iiiiiii.#iiiiiiiiiiiiiiiiiiiiiiiiiiiiiii#.iiiiiiiiiiiiii"};
